HIERARCHY
ROOT root
{
	OFFSET 0.000000 0.000000 0.000000
	CHANNELS 6 Xposition Yposition Zposition Zrotation Yrotation Xrotation
	JOINT lhip
	{
		OFFSET 0.058581 -0.082280 -0.017664
		CHANNELS 3 Zrotation Yrotation Xrotation
		JOINT lknee
		{
			OFFSET 0.043451 -0.386469 0.008037
			CHANNELS 3 Zrotation Yrotation Xrotation
			JOINT lankle
			{
				OFFSET -0.014790 -0.426874 -0.037428
				CHANNELS 3 Zrotation Yrotation Xrotation
				JOINT ltoe
				{
					OFFSET 0.041054 -0.060286 0.122042
					CHANNELS 3 Zrotation Yrotation Xrotation
					End Site
					{
						OFFSET 0.000000 0.000000 0.000000
					}
				}
			}
		}
	}
	JOINT rhip
	{
		OFFSET -0.060310 -0.090513 -0.013543
		CHANNELS 3 Zrotation Yrotation Xrotation
		JOINT rknee
		{
			OFFSET -0.043257 -0.383688 -0.004843
			CHANNELS 3 Zrotation Yrotation Xrotation
			JOINT rankle
			{
				OFFSET 0.019056 -0.420046 -0.034562
				CHANNELS 3 Zrotation Yrotation Xrotation
				JOINT rtoe
				{
					OFFSET -0.034840 -0.062106 0.130323
					CHANNELS 3 Zrotation Yrotation Xrotation
					End Site
					{
						OFFSET 0.000000 0.000000 0.000000
					}
				}
			}
		}
	}
	JOINT lowerback
	{
		OFFSET 0.004439 0.124404 -0.038385
		CHANNELS 3 Zrotation Yrotation Xrotation
		JOINT upperback
		{
			OFFSET 0.004488 0.137956 0.026820
			CHANNELS 3 Zrotation Yrotation Xrotation
			JOINT chest
			{
				OFFSET -0.002265 0.056032 0.002855
				CHANNELS 3 Zrotation Yrotation Xrotation
				JOINT lowerneck
				{
					OFFSET -0.013390 0.211636 -0.033468
					CHANNELS 3 Zrotation Yrotation Xrotation
					JOINT upperneck
					{
						OFFSET 0.010113 0.088937 0.050410
						CHANNELS 3 Zrotation Yrotation Xrotation
						End Site
						{
							OFFSET 0.000000 0.000000 0.000000
						}
					}
				}
				JOINT lclavicle
				{
					OFFSET 0.071702 0.114000 -0.018898
					CHANNELS 3 Zrotation Yrotation Xrotation
					JOINT lshoulder
					{
						OFFSET 0.122921 0.045205 -0.019046
						CHANNELS 3 Zrotation Yrotation Xrotation
						JOINT lelbow
						{
							OFFSET 0.255332 -0.015649 -0.022946
							CHANNELS 3 Zrotation Yrotation Xrotation
							JOINT lwrist
							{
								OFFSET 0.265709 0.012698 -0.007375
								CHANNELS 3 Zrotation Yrotation Xrotation
								End Site
								{
									OFFSET 0.000000 0.000000 0.000000
								}
							}
						}
					}
				}
				JOINT rclavicle
				{
					OFFSET -0.082954 0.112472 -0.023707
					CHANNELS 3 Zrotation Yrotation Xrotation
					JOINT rshoulder
					{
						OFFSET -0.113228 0.046853 -0.008472
						CHANNELS 3 Zrotation Yrotation Xrotation
						JOINT relbow
						{
							OFFSET -0.260127 -0.014369 -0.031269
							CHANNELS 3 Zrotation Yrotation Xrotation
							JOINT rwrist
							{
								OFFSET -0.269108 0.006794 -0.006027
								CHANNELS 3 Zrotation Yrotation Xrotation
								End Site
								{
									OFFSET 0.000000 0.000000 0.000000
								}
							}
						}
					}
				}
			}
		}
	}
}
MOTION
Frames: 10
Frame Time: 0.033333
0.502162 0.479789 0.903759 57.119154 -10.239447 92.243305 5.240124 0.826529 17.309529 -6.007920 -17.087310 39.611815 -12.996087 6.786744 12.862392 0.000000 -0.000000 0.000000 2.853876 2.285769 -42.186115 1.463129 -18.927000 26.509578 -0.686914 -2.603982 -6.427855 0.000000 -0.000000 0.000000 -2.458362 -11.035291 22.643696 -2.459460 -0.031636 -2.188174 -0.852229 -3.713608 -0.816865 -7.054554 0.639519 -15.800221 3.996931 -1.509661 -4.982070 -23.012449 5.904686 -0.152484 -54.072723 -11.195081 15.835358 172.756602 -63.489109 -147.274934 13.095703 -18.070038 -32.272112 18.213356 -9.793830 6.570594 57.599054 -21.088460 10.051294 -7.144772 84.713452 11.581001 -10.936109 17.261992 -23.862792 
0.610243 0.419476 0.887495 55.411061 -9.970687 90.412009 6.783638 2.091160 10.940587 -5.905524 -9.889861 57.400544 -8.459892 8.364776 8.398833 0.000000 -0.000000 0.000000 5.234124 2.640936 -39.078039 0.424843 -16.787751 37.212111 -12.491145 -7.681001 -13.677000 0.000000 -0.000000 0.000000 -2.265850 -8.521516 23.376571 -1.080084 0.705196 -2.368062 -0.836270 -4.052929 0.378835 -6.887881 0.875568 -17.646250 1.854643 -2.536800 -2.407917 -24.603265 5.604868 0.619961 -54.640579 -7.301254 15.925400 179.807288 -73.661538 -154.497098 12.842382 -16.595676 -31.269704 21.943154 -7.940862 4.600277 56.670294 -17.149025 10.950422 -34.519966 82.235750 -15.344191 -9.724585 16.468820 -23.665629 
0.707575 0.358452 0.877865 52.906835 -8.989618 89.103705 8.388690 1.003123 0.925242 -5.715944 -3.976437 72.887188 -5.116302 9.588693 2.836686 0.000000 -0.000000 0.000000 7.741531 5.162381 -34.117672 -1.999613 -16.441675 46.004988 -14.893794 -14.491528 -22.987259 0.000000 -0.000000 0.000000 -3.238775 -5.869929 24.715992 0.791266 1.218768 -1.650215 -0.163186 -3.426219 0.053402 -5.262451 2.154613 -20.071506 -0.781413 -3.438408 0.110767 -27.154332 5.600523 1.368315 -53.811276 -3.638496 15.544043 -177.105168 -85.154810 -159.371038 12.794604 -15.388387 -29.665951 27.124852 -3.296203 2.946588 54.044567 -10.223552 13.733892 -40.509944 75.000016 -22.427790 -10.288225 15.675539 -22.788105 
0.800436 0.295489 0.878217 51.427873 -8.738553 88.405102 9.036470 -1.410033 -11.884233 -5.601799 0.560587 82.204900 -2.340432 10.418601 -3.151376 0.000000 -0.000000 0.000000 9.431746 5.133703 -25.757663 -2.011625 -14.401285 48.237982 -14.629566 -17.790638 -30.503629 0.000000 -0.000000 0.000000 -4.560166 -3.114321 24.578446 2.201277 -0.236122 -0.949389 0.386952 -2.178274 -0.524860 -3.686664 3.051974 -20.655383 -1.925448 -3.912437 1.379458 -28.104580 5.843424 1.922041 -52.110486 1.022326 13.778643 -23.300724 -86.839084 46.043531 12.045260 -14.737466 -26.145454 29.087858 1.080156 2.431344 53.476622 -3.609624 15.116133 -40.988576 72.634642 -22.233313 -10.407720 15.979268 -21.658719 
0.893640 0.230347 0.885138 49.519438 -9.246403 88.059466 8.837014 -2.679563 -23.818879 -5.083653 4.384974 82.444703 -0.367956 10.175769 -8.686031 0.000000 -0.000000 0.000000 9.548352 2.045656 -16.031023 -1.314614 -10.973184 47.915529 -12.170390 -16.157829 -35.010291 0.000000 -0.000000 0.000000 -4.939605 0.822694 23.475601 2.287892 -1.265165 -1.126891 0.172433 -0.935454 -0.623649 -2.863123 2.296154 -19.731534 -1.537038 -4.918193 2.030763 -26.538242 5.747215 2.789501 -49.560485 6.654931 12.602447 -64.781195 -84.588512 87.192246 12.136782 -14.600477 -25.246917 26.211069 2.733701 1.478515 57.378140 -1.393526 15.487316 -64.418348 79.006927 -44.441481 -10.651821 16.768527 -23.481661 
0.989129 0.162414 0.896080 46.672259 -10.488252 88.360205 8.145991 -3.574940 -32.577248 -4.725171 9.120494 73.071898 0.111046 9.446382 -12.851749 0.000000 -0.000000 0.000000 6.647505 -1.005585 -7.801644 -0.223559 -6.721246 48.765329 -6.321986 -10.193108 -33.554168 0.000000 -0.000000 0.000000 -5.433003 5.839281 20.947825 2.056052 -1.146049 -1.420603 -1.094168 0.162380 0.760987 -1.254241 2.749968 -18.701509 -2.138593 -8.578116 0.588988 -23.720335 7.247414 3.511190 -46.423611 9.163508 14.899155 -107.320938 -81.640180 126.928998 13.963317 -14.312861 -27.910623 23.684568 0.219324 -1.150837 59.338636 -0.059183 18.995826 -133.575313 79.576177 -112.337231 -10.489502 16.591649 -23.238221 
1.086648 0.091167 0.910288 45.078276 -10.951062 88.272645 7.447565 -5.278540 -36.683530 -5.770222 12.038319 55.264460 -0.717376 8.299743 -12.512120 0.000000 -0.000000 0.000000 2.829691 -1.990143 -2.575672 1.621911 -3.135425 52.520237 1.084164 -3.185093 -20.368094 0.000000 -0.000000 0.000000 -5.491814 8.728192 18.885350 1.627203 -1.096785 -0.907942 -1.507651 0.980000 0.580272 -1.420841 1.058610 -17.342859 -0.887187 -9.409686 -0.660703 -21.240447 9.100932 3.921275 -45.481072 12.676195 15.828923 -125.704432 -78.282115 144.322926 14.165256 -15.445453 -28.858382 21.015829 -1.854115 -2.302185 59.516643 0.367872 20.228286 -166.102912 71.640518 -143.414469 -8.828516 18.135254 -22.407896 
1.185596 0.016721 0.923063 45.256847 -10.233283 86.764801 5.743917 -7.363667 -35.319531 -7.928309 9.170433 33.530435 -4.791833 6.650169 -5.514243 0.000000 -0.000000 0.000000 0.668006 -2.211819 1.232146 2.342620 -0.472365 56.843174 4.848695 0.244792 -3.503527 0.000000 -0.000000 0.000000 -4.979553 9.232632 17.753078 1.841200 -1.229579 -0.105969 -1.267047 1.370421 0.274342 -2.411497 -0.449314 -15.401868 0.198324 -8.878018 -2.574468 -19.283138 11.084973 4.796060 -47.137945 16.045708 15.469133 -133.771490 -76.483827 152.929772 13.837053 -16.164261 -29.021046 18.662581 -3.502752 -2.591641 59.101602 0.113453 20.561485 -173.739177 64.979599 -150.504811 -7.690144 19.120090 -23.676946 
1.283706 -0.057800 0.926392 45.909941 -8.791423 84.733924 2.907168 -8.155420 -32.099630 -6.943960 5.741596 18.749212 -10.371470 6.022276 4.568895 0.000000 -0.000000 0.000000 0.434103 -1.909113 2.569716 -0.078979 0.199849 64.313441 1.885521 -4.095779 -2.500824 0.000000 -0.000000 0.000000 -4.274438 8.360834 16.770908 1.829009 -1.405067 1.364228 -0.055517 1.181686 -1.026236 -3.801153 -2.273050 -12.590521 1.668559 -6.155665 -3.511416 -17.173457 10.573255 5.767490 -51.963234 21.826425 11.573712 -136.211695 -74.097848 157.247943 14.198496 -16.383644 -29.968610 15.671124 -1.736977 -2.588341 59.904714 -4.432382 16.811834 -177.931908 62.585778 -156.322701 -6.825371 20.792251 -24.027080 
1.379704 -0.131106 0.916907 46.244557 -6.804452 82.395127 0.507229 -8.081156 -29.737226 -5.965008 5.315463 17.509036 -7.280821 7.531665 6.812944 0.000000 -0.000000 0.000000 0.643443 -0.385304 0.366957 -3.717843 -0.660537 75.051630 -2.715864 -11.044320 -7.979557 0.000000 -0.000000 0.000000 -3.379265 6.451571 16.941485 2.468609 -0.900785 0.672758 0.456832 0.729798 -0.030162 -3.614873 -2.853525 -11.756588 1.018000 -3.919717 -3.428608 -16.735117 12.038200 6.490999 -55.031558 22.083008 10.289756 -137.260338 -72.798779 160.781251 14.545069 -15.280197 -31.425881 15.446855 -2.706250 -2.436584 59.835539 -6.093605 16.295522 -176.485583 66.203109 -154.718344 -5.597557 20.899489 -22.629687 
